<svg xmlns="http://www.w3.org/2000/svg" width="800" height="800" version="1.1"><polygon style="stroke:#000;fill:silver;stroke-width:2;stroke-linecap:butt;stroke-linejoin:miter" points="179 396 446.997 396 446.997 644.921 179 644.921"/><polygon style="stroke:#000;fill:silver;stroke-width:2;stroke-linecap:butt;stroke-linejoin:miter" points="89 139 452.027 139 452.027 285.934 89 285.934"/><polygon style="stroke:#000;fill:#fff;stroke-width:2;stroke-linecap:butt;stroke-linejoin:miter" points="292 35 362 35 362 80 292 80"/><text y="49" fill="#000" font-family="Arial" font-size="12" text-anchor="middle" transform="rotate(0 327 ,55)"><tspan x="327" dy="12">Builder</tspan></text><polygon style="stroke:#000;fill:#fff;stroke-width:2;stroke-linecap:butt;stroke-linejoin:miter" points="449.303 35 554.904 35 554.904 80 449.303 80"/><text y="49" fill="#000" font-family="Arial" font-size="12" text-anchor="middle" transform="rotate(0 502.10383 ,55)"><tspan x="502.104" dy="12">Builder Property</tspan></text><polygon style="stroke:#000;fill:#fff;stroke-width:2;stroke-linecap:butt;stroke-linejoin:miter" points="271 161 341 161 341 192.936 271 192.936"/><text y="170.968" fill="#000" font-family="Arial" font-size="12" text-anchor="middle" transform="rotate(0 306 ,176.96781)"><tspan x="306" dy="12">Primitives</tspan></text><polygon style="stroke:#000;fill:#fff;stroke-width:2;stroke-linecap:butt;stroke-linejoin:miter" points="261.934 236 367.905 236 367.905 265.68 261.934 265.68"/><text y="243.191" fill="#000" font-family="Arial" font-size="12" text-anchor="middle" transform="rotate(0 314.91939 ,249.19123)"><tspan x="314.919" dy="12">ConnectionPoint</tspan></text><polygon style="stroke:#000;fill:#fff;stroke-width:2;stroke-linecap:butt;stroke-linejoin:miter" points="252.023 402 386.075 402 386.075 463.835 252.023 463.835"/><text y="423.482" fill="#000" font-family="Arial" font-size="12" text-anchor="middle" transform="rotate(0 319.04903 ,429.48227)"><tspan x="319.049" dy="12">Connection Point</tspan></text><polygon style="stroke:#000;fill:#fff;stroke-width:2;stroke-linecap:butt;stroke-linejoin:miter" points="285 332 355 332 355 362.096 285 362.096"/><text y="339.376" fill="#000" font-family="Arial" font-size="12" text-anchor="middle" transform="rotate(0 320 ,345.37583)"><tspan x="320" dy="12">Glue</tspan></text><polygon style="stroke:#000;fill:#fff;stroke-width:2;stroke-linecap:butt;stroke-linejoin:miter" points="298.037 440 379.216 440 379.216 460.667 298.037 460.667"/><text y="443.185" fill="#000" font-family="Arial" font-size="12" text-anchor="middle" transform="rotate(0 338.62652 ,449.18528)"><tspan x="338.627" dy="12">Turning point</tspan></text><polygon style="stroke:#000;fill:#fff;stroke-width:2;stroke-linecap:butt;stroke-linejoin:miter" points="262.96 493 366.885 493 366.885 525.071 262.96 525.071"/><text y="501.254" fill="#000" font-family="Arial" font-size="12" text-anchor="middle" transform="rotate(0 314.92261 ,507.25377)"><tspan x="314.923" dy="12">Turning Point</tspan></text><polygon style="stroke:#000;fill:#fff;stroke-width:2;stroke-linecap:butt;stroke-linejoin:miter" points="567 247 637 247 637 292 567 292"/><text y="253.5" fill="#000" font-family="Arial" font-size="12" text-anchor="middle" transform="rotate(0 602 ,267)"><tspan x="602" dy="12">Handle</tspan><tspan x="602" dy="15"> action()</tspan></text><polygon style="stroke:#000;fill:#fff;stroke-width:2;stroke-linecap:butt;stroke-linejoin:miter" points="255.076 560 390.889 560 390.889 629.877 255.076 629.877"/><text y="585.056" fill="#000" font-family="Arial" font-size="12" text-anchor="middle" transform="rotate(0 322.98221 ,591.05647)"><tspan x="322.982" dy="12">ConnectionPoint</tspan></text><polygon style="stroke:#000;fill:#fff;stroke-width:2;stroke-linecap:butt;stroke-linejoin:miter" points="310 603 388.114 603 388.114 626.676 310 626.676"/><text y="607.523" fill="#000" font-family="Arial" font-size="12" text-anchor="middle" transform="rotate(0 349.05707 ,613.52262)"><tspan x="349.057" dy="12">TurningPoint</tspan></text><polygon style="stroke:#000;fill:#fff;stroke-width:2;stroke-linecap:butt;stroke-linejoin:miter" points="431 433.811 463.347 433.811 463.347 601.94 431 601.94"/><text y="442.535" fill="#000" font-family="Arial" font-size="12" text-anchor="middle" transform="rotate(0 447.17363 ,508.53514)"><tspan x="447.174" dy="12">C</tspan><tspan x="447.174" dy="15">O</tspan><tspan x="447.174" dy="15">N</tspan><tspan x="447.174" dy="15">N</tspan><tspan x="447.174" dy="15">E</tspan><tspan x="447.174" dy="15">C</tspan><tspan x="447.174" dy="15">T</tspan><tspan x="447.174" dy="15">O</tspan><tspan x="447.174" dy="15">R</tspan></text><polygon style="stroke:#000;fill:#fff;stroke-width:2;stroke-linecap:butt;stroke-linejoin:miter" points="565.522 149 672.499 149 672.499 194 565.522 194"/><text y="163" fill="#000" font-family="Arial" font-size="12" text-anchor="middle" transform="rotate(0 619.01038 ,169)"><tspan x="619.01" dy="12">HandleManager</tspan></text><polygon style="stroke:#000;fill:#fff;stroke-width:2;stroke-linecap:butt;stroke-linejoin:miter" points="431 148.513 474.139 148.513 474.139 275.056 431 275.056"/><text y="161.254" fill="#000" font-family="Arial" font-size="12" text-anchor="middle" transform="rotate(0 452.5694 ,204.75406)"><tspan x="452.569" dy="12">F</tspan><tspan x="452.569" dy="15">I</tspan><tspan x="452.569" dy="15">G</tspan><tspan x="452.569" dy="15">U</tspan><tspan x="452.569" dy="15">R</tspan><tspan x="452.569" dy="15">E</tspan></text><text y="42.5" fill="#000" font-family="Arial" font-size="12" text-anchor="middle" transform="rotate(0 371 ,48.5)"><tspan x="371" dy="12">1</tspan></text><text y="42.5" fill="#000" font-family="Arial" font-size="12" text-anchor="middle" transform="rotate(0 433 ,48.5)"><tspan x="433" dy="12">*</tspan></text><text y="166.5" fill="#000" font-family="Arial" font-size="12" text-anchor="middle" transform="rotate(0 421 ,172.5)"><tspan x="421" dy="12">1</tspan></text><text y="159.5" fill="#000" font-family="Arial" font-size="12" text-anchor="middle" transform="rotate(0 357 ,165.5)"><tspan x="357" dy="12">*</tspan></text><text y="265.5" fill="#000" font-family="Arial" font-size="12" text-anchor="middle" transform="rotate(0 310 ,271.5)"><tspan x="310" dy="12">1</tspan></text><text y="315.5" fill="#000" font-family="Arial" font-size="12" text-anchor="middle" transform="rotate(0 312 ,321.5)"><tspan x="312" dy="12">*</tspan></text><text y="363.5" fill="#000" font-family="Arial" font-size="12" text-anchor="middle" transform="rotate(0 330 ,369.5)"><tspan x="330" dy="12">*</tspan></text><text y="379.5" fill="#000" font-family="Arial" font-size="12" text-anchor="middle" transform="rotate(0 325 ,385.5)"><tspan x="325" dy="12">1</tspan></text><text y="197.5" fill="#000" font-family="Arial" font-size="12" text-anchor="middle" transform="rotate(0 616 ,203.5)"><tspan x="616" dy="12">1</tspan></text><text y="230.5" fill="#000" font-family="Arial" font-size="12" text-anchor="middle" transform="rotate(0 613 ,236.5)"><tspan x="613" dy="12">*</tspan></text><text y="498.5" fill="#000" font-family="Arial" font-size="12" text-anchor="middle" transform="rotate(0 374 ,504.5)"><tspan x="374" dy="12">*</tspan></text><polygon style="stroke:#000;fill:#fff;stroke-width:2;stroke-linecap:butt;stroke-linejoin:miter" points="568.438 497 702.923 497 702.923 542 568.438 542"/><text y="511" fill="#000" font-family="Arial" font-size="12" text-anchor="middle" transform="rotate(0 635.68076 ,517)"><tspan x="635.681" dy="12">Connection Manager</tspan></text><text y="501.5" fill="#000" font-family="Arial" font-size="12" text-anchor="middle" transform="rotate(0 559 ,507.5)"><tspan x="559" dy="12">1</tspan></text><text y="500.5" fill="#000" font-family="Arial" font-size="12" text-anchor="middle" transform="rotate(0 475 ,506.5)"><tspan x="475" dy="12">*</tspan></text><text y="27" fill="#f60" font-family="Arial" font-size="18" text-anchor="middle" transform="rotate(0 120 ,46.5)"><tspan x="120" dy="18">Diagramo architecture</tspan><tspan x="120" dy="21">overview</tspan></text><polyline style="stroke:#000;fill:none;stroke-width:1;stroke-linecap:butt;stroke-linejoin:miter" points="362 57.5 449.303 57.5"/><polyline style="stroke:#000;fill:none;stroke-width:1;stroke-linecap:butt;stroke-linejoin:miter" points="314.919 265.68 320 332"/><polyline style="stroke:#000;fill:none;stroke-width:1;stroke-linecap:butt;stroke-linejoin:miter" points="320 362.096 319.049 402"/><polyline style="stroke:#000;fill:none;stroke-width:1;stroke-linecap:butt;stroke-linejoin:miter" points="299.899 463.835 300.076 493"/><polyline style="stroke:#000;fill:none;stroke-width:1;stroke-linecap:butt;stroke-linejoin:miter" points="300.076 525.071 303.58 560"/><polyline style="stroke:#000;fill:none;stroke-width:1;stroke-linecap:butt;stroke-linejoin:miter" points="603.728 194 602 247"/><polyline style="stroke:#000;fill:none;stroke-width:1;stroke-linecap:butt;stroke-linejoin:miter" points="431 183.664 341 176.968"/><polyline style="stroke:#000;fill:none;stroke-width:1;stroke-linecap:butt;stroke-linejoin:miter" points="386.075 432.918 406.075 432.918 406.075 445.741 399.216 445.741 379.216 445.741"/><polygon style="stroke:#000;fill:#000;stroke-width:1;stroke-linecap:butt;stroke-linejoin:miter" points="379.216 445.741 392.207 453.241 392.207 438.241"/><text y="437.758" font-family="Arial" font-size="10" text-anchor="middle" transform="rotate(0 406.0747 ,442.7583)"><tspan x="406.075" dy="10">Is a</tspan></text><polyline style="stroke:#000;fill:none;stroke-width:1;stroke-linecap:butt;stroke-linejoin:miter" points="390.889 594.939 410.889 594.939 410.889 614.838 408.114 614.838 388.114 614.838"/><text y="601.276" font-family="Arial" font-size="10" text-anchor="middle" transform="rotate(0 410.88881 ,606.27558)"><tspan x="410.889" dy="10">Is a</tspan></text><polyline style="stroke:#000;fill:none;stroke-width:1;stroke-linecap:butt;stroke-linejoin:miter" points="568.438 519.5 463.347 517.876"/><polygon style="stroke:#000;fill:#000;stroke-width:1;stroke-linecap:butt;stroke-linejoin:miter" points="568.438 519.5 555.566 511.8 555.334 526.798"/><polygon style="stroke:#000;fill:#000;stroke-width:1;stroke-linecap:butt;stroke-linejoin:miter" points="460.099 622.929 467.997 610.177 453.004 609.713"/><text y="513.688" font-family="Arial" font-size="10" text-anchor="middle" transform="rotate(0 515.89287 ,518.68781)"><tspan x="515.893" dy="10">Managed by</tspan></text><polyline style="stroke:#000;fill:none;stroke-width:1;stroke-linecap:butt;stroke-linejoin:miter" points="474.139 211.784 565.522 171.5"/><polygon style="stroke:#000;fill:#000;stroke-width:1;stroke-linecap:butt;stroke-linejoin:miter" points="565.522 171.5 550.61 169.877 556.66 183.603"/><text y="161.642" font-family="Arial" font-size="10" text-anchor="middle" transform="rotate(0 519.83021 ,191.64211)"><tspan x="519.83" dy="10">Figure&apos;s</tspan><tspan x="519.83" dy="12.5">handlers</tspan><tspan x="519.83" dy="12.5">managed by</tspan></text></svg>