<svg xmlns="http://www.w3.org/2000/svg" xmlns:xlink="http://www.w3.org/1999/xlink" id="Layer_1" width="200" height="200" x="0" y="0" enable-background="new 0 0 200 200" version="1.1" viewBox="0 0 200 200" xml:space="preserve"><pattern id="Laguna" width="84.156" height="81.6" overflow="visible" patternUnits="userSpaceOnUse" viewBox="0 -84.791 84.156 81.6"><g><polygon fill="none" points="0 -3.191 0 -84.791 84.156 -84.791 84.156 -3.191"/><path fill="#ED1C24" d="M42.078-30.391c0,0-29.855,17.513-33.029,17.982C7.287-14.171,0-30.391,0-30.391 C13.164-20.519,29.148-23.339,42.078-30.391z"/><path fill="#ED1C24" d="M42.078-57.591c0,0-29.855,17.513-33.029,17.981C7.287-41.371,0-57.591,0-57.591 C13.164-47.718,29.148-50.539,42.078-57.591z"/><path fill="#ED1C24" d="M42.078-84.791c0,0-29.855,17.514-33.029,17.981C7.287-68.57,0-84.791,0-84.791 C13.164-74.918,29.148-77.74,42.078-84.791z"/><path fill="#7F3F98" d="M84.156-30.391c0,0-29.855,17.513-33.029,17.982c-1.762-1.763-9.049-17.982-9.049-17.982 C55.242-20.519,71.227-23.339,84.156-30.391z"/><path fill="#7F3F98" d="M84.156-57.591c0,0-29.855,17.513-33.029,17.981c-1.762-1.762-9.049-17.981-9.049-17.981 C55.242-47.718,71.227-50.539,84.156-57.591z"/><path fill="#7F3F98" d="M84.156-84.791c0,0-29.855,17.514-33.029,17.981c-1.762-1.761-9.049-17.981-9.049-17.981 C55.242-74.918,71.227-77.74,84.156-84.791z"/><path fill="#00A14B" d="M21.039-33.582c-1.762,0-3.191,1.43-3.191,3.191s1.43,3.19,3.191,3.19s3.189-1.429,3.189-3.19 S22.801-33.582,21.039-33.582z"/><path fill="#00A14B" d="M21.039-6.382c-1.762,0-3.191,1.429-3.191,3.19c0,1.763,1.43,3.191,3.191,3.191s3.189-1.429,3.189-3.191 C24.229-4.953,22.801-6.382,21.039-6.382z"/><path fill="#00A14B" d="M21.039-60.782c-1.762,0-3.191,1.43-3.191,3.191s1.43,3.191,3.191,3.191s3.189-1.43,3.189-3.191 S22.801-60.782,21.039-60.782z"/><path fill="#00A14B" d="M21.039-87.982c-1.762,0-3.191,1.428-3.191,3.191c0,1.763,1.43,3.191,3.191,3.191s3.189-1.429,3.189-3.191 C24.229-86.555,22.801-87.982,21.039-87.982z"/><path fill="#00A14B" d="M63.117-33.582c-1.762,0-3.191,1.43-3.191,3.191s1.43,3.19,3.191,3.19s3.189-1.429,3.189-3.19 S64.879-33.582,63.117-33.582z"/><path fill="#00A14B" d="M63.117-6.382c-1.762,0-3.191,1.429-3.191,3.19c0,1.763,1.43,3.191,3.191,3.191s3.189-1.429,3.189-3.191 C66.307-4.953,64.879-6.382,63.117-6.382z"/><path fill="#00A14B" d="M63.117-60.782c-1.762,0-3.191,1.43-3.191,3.191s1.43,3.191,3.191,3.191s3.189-1.43,3.189-3.191 S64.879-60.782,63.117-60.782z"/><path fill="#00A14B" d="M63.117-87.982c-1.762,0-3.191,1.428-3.191,3.191c0,1.763,1.43,3.191,3.191,3.191s3.189-1.429,3.189-3.191 C66.307-86.555,64.879-87.982,63.117-87.982z"/><path fill="#7F3F98" d="M0-3.191c0,0,29.854-17.513,33.027-17.982c1.763,1.763,9.051,17.982,9.051,17.982 C28.914-13.064,12.928-10.242,0-3.191z"/><path fill="#7F3F98" d="M0-30.391c0,0,29.854-17.513,33.027-17.983c1.763,1.764,9.051,17.983,9.051,17.983 C28.914-40.265,12.928-37.443,0-30.391z"/><path fill="#7F3F98" d="M0-57.591c0,0,29.854-17.513,33.027-17.984c1.763,1.765,9.051,17.984,9.051,17.984 C28.914-67.465,12.928-64.644,0-57.591z"/><path fill="#ED1C24" d="M42.078-3.191c0,0,29.854-17.513,33.027-17.982c1.764,1.763,9.051,17.982,9.051,17.982 C70.992-13.064,55.006-10.242,42.078-3.191z"/><path fill="#ED1C24" d="M42.078-30.391c0,0,29.854-17.513,33.027-17.983c1.764,1.764,9.051,17.983,9.051,17.983 C70.992-40.265,55.006-37.443,42.078-30.391z"/><path fill="#ED1C24" d="M42.078-57.591c0,0,29.854-17.513,33.027-17.984c1.764,1.765,9.051,17.984,9.051,17.984 C70.992-67.465,55.006-64.644,42.078-57.591z"/></g></pattern><linearGradient id="SVGID_1_" x1="11.889" x2="80.5" y1="39.834" y2="39.834" gradientUnits="userSpaceOnUse"><stop offset="0" style="stop-color:#00a14b"/><stop offset=".01" style="stop-color:#4da848"/><stop offset=".029" style="stop-color:#86b442"/><stop offset=".048" style="stop-color:#adc03b"/><stop offset=".068" style="stop-color:#ccca33"/><stop offset=".088" style="stop-color:#e3d22a"/><stop offset=".108" style="stop-color:#f4d822"/><stop offset=".128" style="stop-color:#fedc1b"/><stop offset=".15" style="stop-color:#ffde17"/><stop offset=".3" style="stop-color:#f26522"/><stop offset=".47" style="stop-color:#00a14b"/><stop offset=".64" style="stop-color:#ffde17"/><stop offset=".801" style="stop-color:#f26522"/><stop offset="1" style="stop-color:#00a14b"/></linearGradient><rect width="68.611" height="55.556" x="11.889" y="12.056" fill="url(#SVGID_1_)" stroke="#000" stroke-miterlimit="10"/><polygon fill="url(#Laguna)" stroke="#000" stroke-miterlimit="10" points="89.944 149.556 60.921 146.601 42.033 168.833 35.875 140.317 8.894 129.225 34.111 114.557 36.324 85.467 58.066 104.918 86.416 98.033 74.636 124.722"/><line x1="113.833" x2="174.944" y1="22.333" y2="15.667" fill="#F37126" stroke="#F15A29" stroke-miterlimit="10"/><line x1="174.944" x2="174.944" y1="15.667" y2="85.467" fill="none" stroke="#000" stroke-miterlimit="10"/><line x1="113.833" x2="174.944" y1="22.333" y2="85.467" fill="none" stroke="#000" stroke-miterlimit="10"/><line x1="174.944" x2="89.944" y1="85.467" y2="149.556" fill="none" stroke="#000" stroke-miterlimit="10"/></svg>