<svg xmlns="http://www.w3.org/2000/svg" xmlns:svg="http://www.w3.org/2000/svg" id="svg2996" width="148.621" height="126.204" version="1.1"><metadata id="metadata4"/><g id="layer1" transform="translate(-29.75,-867.8125)"><path style="fill:#f57900;stroke:#000;stroke-width:1px;stroke-linecap:butt;stroke-linejoin:miter;stroke-opacity:1" id="path3010" d="m 31.024119,953.66089 0,-32.28201 50.092764,0 0,-53.06122 87.198507,0 0,103.15398 -138.033386,0 z"/><path style="fill:#8ae234;fill-opacity:1;stroke:#73d216;stroke-width:5;stroke-miterlimit:4;stroke-opacity:1;stroke-dasharray:none" id="path3002" d="m 55.658627,116.88312 c 0,10.24647 -8.306406,18.55287 -18.552876,18.55287 -10.24647,0 -18.552875,-8.3064 -18.552875,-18.55287 0,-10.24647 8.306405,-18.552878 18.552875,-18.552878 10.24647,0 18.552876,8.306408 18.552876,18.552878 z" transform="translate(0,852.36218)"/><path style="fill:#8ae234;fill-opacity:1;stroke:#73d216;stroke-width:5;stroke-miterlimit:4;stroke-opacity:1;stroke-dasharray:none" id="path3004" d="m 172.54175,115.95547 c 0,22.43977 -18.19103,40.6308 -40.6308,40.6308 -22.43977,0 -40.630799,-18.19103 -40.630799,-40.6308 0,-22.439773 18.191029,-40.630801 40.630799,-40.630801 22.43977,0 40.6308,18.191028 40.6308,40.630801 z" transform="translate(3.3395176,834.92248)"/></g></svg>