<svg xmlns="http://www.w3.org/2000/svg" xmlns:svg="http://www.w3.org/2000/svg" xmlns:xlink="http://www.w3.org/1999/xlink" id="svg3621" width="36.667" height="58.543" x="0" y="0" enable-background="new 0 0 36.667 58.543" version="1.1" viewBox="0 0 36.667 58.543" xml:space="preserve"><g><linearGradient id="rect4201_1_" x1="253.961" x2="277.961" y1="-327.994" y2="-286.449" gradientTransform="matrix(1 0 0 -1 -247.5996 -280.8398)" gradientUnits="userSpaceOnUse"><stop offset="0" style="stop-color:#000;stop-opacity:.64"/><stop offset="1" style="stop-color:#999;stop-opacity:.55"/></linearGradient><rect id="rect4201" width="30.546" height="46.728" x="3.392" y="2.493" fill="url(#rect4201_1_)"/><g id="g4195" transform="matrix(1.2913081,0,0,1.2913081,-6.8513535,-5.6843746)"><path id="path3631" fill="#6A6A6A" stroke="#000" stroke-linejoin="round" stroke-width=".581" d="M6.08,5.176v39.469 c0,0,5.073,5.096,13.438,5.093c8.828-0.002,13.656-3.999,13.656-3.999V5.176H6.08z M8.08,7.239h22.907v32.844H8.08V7.239z"/><path id="path4145" fill="#6A6A6A" stroke="#000" stroke-linejoin="round" stroke-width=".581" d="M22.253,44.77c0,1.355-1.098,2.455-2.454,2.455s-2.454-1.1-2.454-2.455c0-1.355,1.099-2.455,2.454-2.455 S22.253,43.414,22.253,44.77L22.253,44.77z"/><rect id="rect4147" width="6.318" height="2.999" x="9.208" y="41.952" fill="#6A6A6A" stroke="#000" stroke-linejoin="round" stroke-width=".581"/><rect id="rect4147-8" width="6.319" height="2.999" x="24.048" y="41.952" fill="#6A6A6A" stroke="#000" stroke-linejoin="round" stroke-width=".581"/></g><path id="path4219" fill="#32B71D" d="M5.914,49.402H7.05l0.205,1.068c0,0,2.492,0.67,3.409,0 c0.302-0.221,0.341-1.068,0.341-1.068h1c0,0,0.059,1.441-0.464,1.73c-0.657,0.363-3.763,0.566-4.991,0 C5.992,50.875,5.914,49.402,5.914,49.402z"/><path id="path4219-3" fill="#B71D1D" d="M25.14,49.383h1.137l0.205,1.068c0,0,2.49,0.67,3.408,0 c0.303-0.221,0.342-1.068,0.342-1.068h1c0,0,0.059,1.441-0.465,1.73c-0.656,0.365-3.762,0.566-4.99,0 C25.218,50.857,25.14,49.383,25.14,49.383z"/></g></svg>