<svg xmlns="http://www.w3.org/2000/svg" xmlns:svg="http://www.w3.org/2000/svg" xmlns:xlink="http://www.w3.org/1999/xlink" id="svg2383" width="43.033" height="37.081" x="0" y="0" enable-background="new -7.502 -6.944 43.033 37.081" version="1.1" viewBox="-7.502 -6.944 43.033 37.081" xml:space="preserve"><g><path id="path3509" fill="#B3B3B3" d="M35.577,15.605v7.098l-13.126,7.369l-4.164-0.068l-0.057-8.17 l16.008-6.966L35.577,15.605z"/><rect id="rect2693" width="0" height=".401" x="23.254" y="33.755" stroke="#FFF" stroke-linecap="square" stroke-miterlimit="1"/><path id="path3519" fill="#E6E6E6" d="M18.287,22.234l0.078,7.903l-1.541-0.469L-1.728,18.685 l2.813-0.805l2.947-2.611l0.133-6.028l14.534,12.993H18.287z"/><path id="path3529" fill="none" d="M15.418-4.691l1.742-1.071l6.496-0.469l4.152,4.085l0.201,4.89l-3.082,2.813L15.418-4.691z"/><path id="path3539" fill="#E6E6E6" d="M-6.349,5.356l-0.067,9.577l3.281,2.947l3.684,0.402l3.416-3.081V9.106L-6.349,5.356z"/><path id="path3549" fill="none" d="M3.831,9.374L-6.552,5.356L15.287-5.025l5.958,6.229L3.831,9.374z"/><path id="path2689" fill="none" stroke="#000" stroke-linecap="round" stroke-linejoin="round" d="M25.285,5.557l2.477-2.076l0.269-5.158l-4.219-4.554l-6.095,0.133L-6.462,5.424l0.133,9.509l4.354,3.885l2.814-0.736l3.148-2.88 L4.12,9.174l16.61-7.569L35.531,15.87v6.766l-13.261,7.301h-4.622l-19.69-11.102"/><path id="path3561" fill="none" stroke="#000" stroke-linejoin="round" d="M19.168,18.484 l-7.233-7.636l9.108-4.421l7.436,7.703L19.168,18.484z"/><path id="path3563" fill="none" stroke="#000" d="M18.098,7.7l7.299,7.434"/><path id="path3565" fill="none" stroke="#000" d="M15.016,9.174l7.167,7.636"/></g></svg>