<svg xmlns="http://www.w3.org/2000/svg" xmlns:svg="http://www.w3.org/2000/svg" xmlns:xlink="http://www.w3.org/1999/xlink" id="svg2994" width="48" height="44.833" x="0" y="0" enable-background="new 0 0 48 44.833" version="1.1" viewBox="0 0 48 44.833" xml:space="preserve"><g id="layer1"><g id="g6707" transform="matrix(2.311016e-2,0,0,2.271533e-2,44.68502,39.36099)"><linearGradient id="rect6709_1_" x1="194750.156" x2="194750.156" y1="-399413.813" y2="-399656.688" gradientTransform="matrix(0.0641 0 0 -0.0447 -13376.1533 -18153.5723)" gradientUnits="userSpaceOnUse"><stop offset="0" style="stop-color:#000;stop-opacity:0"/><stop offset=".5" style="stop-color:#000"/><stop offset="1" style="stop-color:#000;stop-opacity:0"/></linearGradient><rect id="rect6709" width="1339.636" height="478.372" x="-1559.266" y="-282.786" fill="url(#rect6709_1_)" enable-background="new" opacity=".402"/><radialGradient id="path6711_1_" cx="205320.656" cy="-404697.094" r="117.142" gradientTransform="matrix(0.0641 0 0 -0.0447 -13375.6045 -18153.5723)" gradientUnits="userSpaceOnUse"><stop offset="0" style="stop-color:#000"/><stop offset="1" style="stop-color:#000;stop-opacity:0"/></radialGradient><path id="path6711" fill="url(#path6711_1_)" d="M-219.63-282.743v478.329c142.914,0.903,345.41-107.179,345.41-239.207S-33.656-282.743-219.63-282.743z" enable-background="new" opacity=".402"/><radialGradient id="path6713_1_" cx="-163301.672" cy="-404697.094" r="117.143" gradientTransform="matrix(-0.0641 0 0 -0.0447 -12038.0674 -18153.5723)" gradientUnits="userSpaceOnUse"><stop offset="0" style="stop-color:#000"/><stop offset="1" style="stop-color:#000;stop-opacity:0"/></radialGradient><path id="path6713" fill="url(#path6713_1_)" d="M-1559.265-282.743v478.329c-142.871,0.903-345.41-107.179-345.41-239.207S-1745.218-282.743-1559.265-282.743z" enable-background="new" opacity=".402"/></g><linearGradient id="rect4652_1_" x1="44.944" x2="62.071" y1="-862.001" y2="-862.001" gradientTransform="matrix(2.3027 0 0 -0.4379 -99.2448 -341.2354)" gradientUnits="userSpaceOnUse"><stop offset="0" style="stop-color:#8e8d87"/><stop offset=".276" style="stop-color:#cbc9c1"/><stop offset="1" style="stop-color:#8e8d87"/></linearGradient><path id="rect4652" fill="url(#rect4652_1_)" stroke="#595959" stroke-width="1" d="M6.461,33.004h35.015 c0.945,0,1.711,0.767,1.711,1.712v3.068c0,0.945-0.766,1.712-1.711,1.712H6.461c-0.945,0-1.711-0.767-1.711-1.712v-3.068 C4.75,33.771,5.516,33.004,6.461,33.004z"/><linearGradient id="rect4609_1_" x1="45.508" x2="62.634" y1="-848.028" y2="-848.028" gradientTransform="matrix(2.2918 0 0 -0.4343 -99.9798 -340.273)" gradientUnits="userSpaceOnUse"><stop offset="0" style="stop-color:#dcdcda"/><stop offset="1" style="stop-color:#bab9b7"/></linearGradient><path id="rect4609" fill="url(#rect4609_1_)" stroke="#676767" stroke-width="1" d="M7.131,18.5h33.74c0.385,0,0.877,0.288,1.18,0.724c0.304,0.436,1.736,2.61,2.059,3.074s0.393,0.903,0.393,1.476v12.078 c0,0.913-0.731,1.648-1.641,1.648H5.14c-0.909,0-1.641-0.735-1.641-1.648V23.773c0-0.493,0.101-1.201,0.446-1.652 c0.436-0.569,1.604-2.548,1.913-2.968C6.167,18.733,6.732,18.5,7.131,18.5z"/><path id="path4718" fill="#FBFBFB" d="M7.425,18.976c-0.503,0-1.12,0.078-1.37,0.491l-1.9,3.139 c-0.282,0.465,0.034,1.263,0.933,1.263H42.73c1.311,0,1.221-1.011,0.934-1.44l-1.768-2.651c-0.32-0.481-0.438-0.801-1.238-0.801 H7.425z"/><linearGradient id="path4750_1_" x1="-60.112" x2="-60.012" y1="91.961" y2="65.669" gradientUnits="userSpaceOnUse"><stop offset="0" style="stop-color:#fff;stop-opacity:.1237"/><stop offset=".103" style="stop-color:#fff"/><stop offset="1" style="stop-color:#fff;stop-opacity:0"/></linearGradient><path id="path4750" fill="none" stroke="url(#path4750_1_)" stroke-width=".947" d="M7.605,19.446h32.827c0.366,0,0.833,0.273,1.121,0.686s1.296,2.03,1.603,2.469c0.305,0.438,0.436,0.855,0.436,1.397v11.281 c0,0.865-0.135,1.249-0.998,1.249H5.532c-0.863,0-1.06-0.384-1.06-1.249V23.998c0-0.468,0.221-1.139,0.549-1.565 c0.414-0.539,1.083-1.971,1.375-2.368C6.689,19.667,7.227,19.446,7.605,19.446z"/><linearGradient id="rect15391_1_" x1="238.683" x2="238.416" y1="-244.73" y2="-266.298" gradientTransform="matrix(0.9457 0 0 -1.076 -201.6489 -258.2788)" gradientUnits="userSpaceOnUse"><stop offset="0" style="stop-color:#e0e0e0"/><stop offset=".406" style="stop-color:#fff"/><stop offset=".534" style="stop-color:#cdcdcd"/><stop offset="1" style="stop-color:#494949"/></linearGradient><path id="rect15391" fill="url(#rect15391_1_)" stroke="#898989" stroke-linecap="round" stroke-width="1" d="M11.673,1.5h24.652c0.651,0,1.175,0.51,1.175,1.144v18.705H10.499V2.644C10.499,2.01,11.022,1.5,11.673,1.5z"/><linearGradient id="rect15660_1_" x1="-54.729" x2="-54.782" y1="99.359" y2="105.162" gradientUnits="userSpaceOnUse"><stop offset="0" style="stop-color:#fff;stop-opacity:0"/><stop offset="1" style="stop-color:#f8f8f8"/></linearGradient><path id="rect15660" fill="none" stroke="url(#rect15660_1_)" stroke-linecap="round" stroke-linejoin="round" stroke-width="1" d="M11.675,2.499h24.647c0.098,0,0.177,0.079,0.177,0.177v18.483c0,0.098-0.079,0.177-0.177,0.177H11.675 c-0.098,0-0.177-0.079-0.177-0.177V2.676C11.499,2.578,11.578,2.499,11.675,2.499z"/><linearGradient id="rect4678_1_" x1="49.762" x2="49.762" y1="-872.305" y2="-861.789" gradientTransform="matrix(2.3698 0 0 -0.422 -94.1764 -341.8048)" gradientUnits="userSpaceOnUse"><stop offset="0" style="stop-color:#f7f6f5"/><stop offset="1" style="stop-color:#f7f6f5;stop-opacity:0"/></linearGradient><linearGradient id="rect4678_2_" x1="-65.769" x2="-65.795" y1="53.775" y2="62.218" gradientUnits="userSpaceOnUse"><stop offset="0" style="stop-color:#666"/><stop offset="1" style="stop-color:#000;stop-opacity:0"/></linearGradient><path id="rect4678" fill="url(#rect4678_1_)" stroke="url(#rect4678_2_)" d="M8.586,24.375h30.328c0.945,0,1.711,0.766,1.711,1.711 v1.766c0,0.945-0.766,1.711-1.711,1.711H8.586c-0.945,0-1.711-0.766-1.711-1.711v-1.766C6.875,25.141,7.641,24.375,8.586,24.375z"/><radialGradient id="path4696_1_" cx="206.728" cy="-295.765" r="2.124" gradientTransform="matrix(1 0 0 -1 -197.5996 -269.8398)" gradientUnits="userSpaceOnUse"><stop offset="0" style="stop-color:#fffffd"/><stop offset=".5" style="stop-color:#bbbbb9"/><stop offset="1" style="stop-color:#000"/></radialGradient><path id="path4696" fill="url(#path4696_1_)" d="M10.872,26.627c0,0.707-0.574,1.281-1.281,1.281c-0.708,0-1.282-0.574-1.282-1.281l0,0c0-0.709,0.574-1.282,1.282-1.282 C10.298,25.345,10.872,25.918,10.872,26.627z"/><linearGradient id="path4731_1_" x1="32.603" x2="32.647" y1="-1023.1" y2="-1037.939" gradientTransform="matrix(2.7721 0 0 -0.3607 -63.1876 -348.5438)" gradientUnits="userSpaceOnUse"><stop offset="0" style="stop-color:#000;stop-opacity:.2371"/><stop offset="1" style="stop-color:#000;stop-opacity:0"/></linearGradient><path id="path4731" fill="url(#path4731_1_)" d="M11.744,22.416l25.563,0.063c0.688,0.002,0.987-0.371,0.938-1l-0.125-1.563h1.865c0.813,0,0.99,0.192,1.188,0.563l0.5,0.938 c0.527,0.988,1.812,1.975,0.498,1.975C37.668,23.391,13.994,23.041,11.744,22.416z" enable-background="new" opacity=".366"/><path id="path4760" fill="none" stroke="#FFF" stroke-linecap="round" stroke-linejoin="round" stroke-width="1" d="M43.488,23.5H4.511"/><g id="g4849" opacity=".436" transform="translate(0.000000,2.000000)"><rect id="rect4833" width="19" height="1" x="14" y="4" fill-opacity=".292"/><rect id="rect4835" width="19" height="1" x="14" y="6" fill-opacity=".292"/><rect id="rect4837" width="19" height="1" x="14" y="8" fill-opacity=".292"/><rect id="rect4839" width="11" height="1" x="14" y="10" fill-opacity=".292"/><rect id="rect4843" width="19" height="1" x="14" y="14" fill-opacity=".292"/><rect id="rect4845" width="19" height="1" x="14" y="16" fill-opacity=".292"/></g></g></svg>