<svg xmlns="http://www.w3.org/2000/svg" xmlns:svg="http://www.w3.org/2000/svg" xmlns:xlink="http://www.w3.org/1999/xlink" id="svg2" width="57.073" height="84.51" x="0" y="0" enable-background="new 0 0 57.073 84.51" version="1.1" viewBox="0 0 57.073 84.51" xml:space="preserve"><path id="rect3196" fill="#FFF" stroke="#000" stroke-linecap="round" stroke-linejoin="round" stroke-width="4" d="M28.453,2	C13.854,2,2,8.672,2,16.891v50.563c0,8.219,11.854,14.891,26.453,14.891s26.453-6.672,26.453-14.891V16.891h-0.016	C54.891,8.672,43.052,2,28.453,2z"/><path id="path2527" fill="#FFF" stroke="#000" stroke-linecap="round" stroke-linejoin="round" stroke-width="2" d="M53.988,16.891c0,7.938-11.43,14.373-25.529,14.373S2.931,24.828,2.931,16.891l0,0c0-7.938,11.43-14.373,25.529-14.373	S53.988,8.953,53.988,16.891z"/><path id="path2527_1_" fill="#E6E6E6" d="M47.257,16.891c0,5.821-8.381,10.54-18.72,10.54c-10.339,0-18.72-4.719-18.72-10.54l0,0c0-5.821,8.381-10.54,18.72-10.54	C38.876,6.351,47.257,11.07,47.257,16.891z"/></svg>