<svg xmlns="http://www.w3.org/2000/svg" xmlns:svg="http://www.w3.org/2000/svg" xmlns:xlink="http://www.w3.org/1999/xlink" id="svg2108" width="48" height="48" x="0" y="0" enable-background="new 0 0 48 48" version="1.1" viewBox="0 0 48 48" xml:space="preserve"><g id="layer2"><radialGradient id="path4306_1_" cx="105.492" cy="-567.384" r="8.664" gradientTransform="matrix(1.7755 0 0 -0.584 -163.3027 -295.3555)" gradientUnits="userSpaceOnUse"><stop offset="0" style="stop-color:#000"/><stop offset="1" style="stop-color:#000;stop-opacity:0"/></radialGradient><path id="path4306" fill="url(#path4306_1_)" d="M39.38,35.987c0.004,2.794-6.879,5.061-15.372,5.062c-8.494,0.001-15.383-2.263-15.387-5.057c0-0.001,0-0.003,0-0.005 c-0.004-2.793,6.879-5.059,15.373-5.061c8.494-0.002,15.383,2.263,15.387,5.057C39.38,35.984,39.38,35.986,39.38,35.987z"/><radialGradient id="path4308_1_" cx="157.676" cy="-346.798" r="13.565" gradientTransform="matrix(1.2976 0 0 -0.8848 -183.4925 -281.2381)" gradientUnits="userSpaceOnUse"><stop offset="0" style="stop-color:#3b74bc"/><stop offset="1" style="stop-color:#2d5990"/></radialGradient><path id="path4308" fill="url(#path4308_1_)" stroke="#204A87" stroke-linecap="round" stroke-linejoin="round" d="M18.999,38.245h10.606c3.005,0,5.98-1.103,7.071-4.243c1.035-2.982,0.177-8.662-6.541-13.258H17.585 c-6.718,4.243-7.557,10.044-6.011,13.435C13.15,37.632,15.817,38.245,18.999,38.245z"/><linearGradient id="path4310_1_" x1="221.549" x2="221.549" y1="-298.002" y2="-304.252" gradientTransform="matrix(1 0 0 -1 -197.5996 -271.8398)" gradientUnits="userSpaceOnUse"><stop offset="0" style="stop-color:#fff"/><stop offset="1" style="stop-color:#c9c9c9"/></linearGradient><path id="path4310" fill="url(#path4310_1_)" d="M19.706,22.335c3.182,2.828,4.596,13.081,4.596,13.081 s1.414-10.253,3.89-13.259L19.706,22.335z"/><path id="path4312" fill="#729FCF" d="M21.985,23.396c0,0-2.151,1.66-1.966,3.66 c-2.042-1.801-2.101-5.252-2.101-5.252L21.985,23.396z"/><path id="path4314" fill="none" stroke="#FFF" stroke-linecap="round" stroke-linejoin="round" stroke-width="1" d="M18.928,37.202l10.493-0.021c2.64,0,5.254-0.969,6.211-3.727c0.91-2.62-0.094-7.609-5.995-11.646l-11.524-0.243 c-5.901,3.728-7.043,8.823-5.662,12.044C13.831,36.829,15.845,37.181,18.928,37.202z" enable-background="new" opacity=".215"/><path id="path4316" fill="#729FCF" d="M26.423,23.396c0,0,2.152,1.66,1.967,3.66 c2.041-1.801,2.1-5.252,2.1-5.252L26.423,23.396z"/><radialGradient id="path4318_1_" cx="221.727" cy="-287.457" r="8.664" gradientTransform="matrix(1 0 0 -1 -197.7246 -268.3398)" gradientUnits="userSpaceOnUse"><stop offset="0" style="stop-color:#000"/><stop offset="1" style="stop-color:#000;stop-opacity:0"/></radialGradient><path id="path4318" fill="url(#path4318_1_)" d="M32.663,19.117c0.002,4.784-3.875,8.663-8.658,8.666c-4.784,0.002-8.665-3.874-8.667-8.658c0-0.002,0-0.005,0-0.008 c-0.002-4.784,3.874-8.664,8.658-8.667c4.784-0.002,8.664,3.875,8.667,8.658C32.663,19.112,32.663,19.114,32.663,19.117z"/><radialGradient id="path4320_1_" cx="291.553" cy="-391.231" r="9.162" gradientTransform="matrix(0.788 0 0 -0.788 -207.3851 -294.6164)" gradientUnits="userSpaceOnUse"><stop offset="0" style="stop-color:#f4d9b1"/><stop offset="1" style="stop-color:#df9725"/></radialGradient><path id="path4320" fill="url(#path4320_1_)" stroke="#C17D11" stroke-linecap="round" stroke-linejoin="round" d="M32.788,15.617c0.002,4.784-3.875,8.663-8.658,8.666c-4.784,0.002-8.665-3.874-8.667-8.658c0-0.002,0-0.005,0-0.008 c-0.002-4.784,3.874-8.664,8.658-8.667c4.784-0.002,8.664,3.875,8.667,8.658C32.788,15.612,32.788,15.614,32.788,15.617z"/><path id="path4322" fill="none" stroke="#FFF" stroke-linecap="round" stroke-linejoin="round" stroke-width="1.14" d="M31.723,15.617c0.002,4.196-3.397,7.599-7.594,7.601s-7.599-3.397-7.601-7.594c0-0.002,0-0.005,0-0.007 c-0.002-4.196,3.398-7.599,7.594-7.601c4.195-0.002,7.599,3.398,7.601,7.594C31.723,15.612,31.723,15.615,31.723,15.617z" enable-background="new" opacity=".196"/><linearGradient id="path4354_1_" x1="278.411" x2="280.376" y1="-248.398" y2="-248.798" gradientTransform="matrix(0.9834 0.1816 0.1816 -0.9834 -215.231 -262.8513)" gradientUnits="userSpaceOnUse"><stop offset="0" style="stop-color:#000"/><stop offset="1" style="stop-color:#000;stop-opacity:0"/></linearGradient><path id="path4354" fill="url(#path4354_1_)" d="M14.864,37.384c-1.248-0.545-1.806-1.858-1.806-1.858c0.841-4.069,3.72-7.046,3.72-7.046S14.499,34.891,14.864,37.384z" enable-background="new" opacity=".228"/><linearGradient id="path4364_1_" x1="-229.881" x2="-231.16" y1="-350.878" y2="-350.227" gradientTransform="matrix(-0.9777 0.2101 -0.2101 -0.9777 -265.6507 -262.7025)" gradientUnits="userSpaceOnUse"><stop offset="0" style="stop-color:#000"/><stop offset="1" style="stop-color:#000;stop-opacity:0"/></linearGradient><path id="path4364" fill="url(#path4364_1_)" d="M33.771,36.525c1.23-0.581,1.805-2.003,1.805-2.003c-0.96-4.043-3.977-6.842-3.977-6.842S34.063,34.022,33.771,36.525z" enable-background="new" opacity=".228"/></g></svg>