<svg xmlns="http://www.w3.org/2000/svg" xmlns:xlink="http://www.w3.org/1999/xlink" id="Layer_1" width="48.75" height="32.375" x="0" y="0" enable-background="new 0 0 48.75 32.375" version="1.1" viewBox="0 0 48.75 32.375" xml:space="preserve"><g><rect width="46.722" height="19.781" x="1" y="11.719" fill="#E6E7E8" stroke="#414042" stroke-linecap="round" stroke-linejoin="round" stroke-miterlimit="10"/><polygon fill="#F1F2F2" stroke="#414042" stroke-linecap="round" stroke-linejoin="round" stroke-miterlimit="10" points="40.561 1 10.065 1 1 11.32 47.722 11.32"/><g><rect width="3.673" height="3.673" x="39.667" y="16.392" fill="#8DC63F" stroke="#6D6E71" stroke-miterlimit="10"/><rect width="3.673" height="3.674" x="39.667" y="22.863" fill="#8DC63F" stroke="#6D6E71" stroke-miterlimit="10"/></g><g><rect width="3.674" height="3.673" x="33" y="16.392" fill="#8DC63F" stroke="#6D6E71" stroke-miterlimit="10"/><rect width="3.674" height="3.674" x="33" y="22.863" fill="#8DC63F" stroke="#6D6E71" stroke-miterlimit="10"/></g><g><rect width="3.674" height="3.673" x="25.916" y="16.392" fill="#8DC63F" stroke="#6D6E71" stroke-miterlimit="10"/><rect width="3.674" height="3.674" x="25.916" y="22.863" fill="#8DC63F" stroke="#6D6E71" stroke-miterlimit="10"/></g><g><rect width="3.674" height="3.673" x="18.75" y="16.392" fill="#8DC63F" stroke="#6D6E71" stroke-miterlimit="10"/><rect width="3.674" height="3.674" x="18.75" y="22.863" fill="#8DC63F" stroke="#6D6E71" stroke-miterlimit="10"/></g><g><rect width="3.674" height="3.673" x="11.5" y="16.392" fill="#8DC63F" stroke="#6D6E71" stroke-miterlimit="10"/><rect width="3.674" height="3.674" x="11.5" y="22.863" fill="#8DC63F" stroke="#6D6E71" stroke-miterlimit="10"/></g><g><rect width="3.674" height="3.673" x="4.25" y="16.392" fill="#8DC63F" stroke="#6D6E71" stroke-miterlimit="10"/><rect width="3.674" height="3.674" x="4.25" y="22.863" fill="#8DC63F" stroke="#6D6E71" stroke-miterlimit="10"/></g></g></svg>