<svg xmlns="http://www.w3.org/2000/svg" xmlns:svg="http://www.w3.org/2000/svg" xmlns:xlink="http://www.w3.org/1999/xlink" id="svg1288" width="37.59" height="60.125" x="0" y="0" enable-background="new 0 0 37.59 60.125" version="1.1" viewBox="0 0 37.59 60.125" xml:space="preserve"><g><g id="g6707" transform="matrix(1.42075e-2,0,0,2.086758e-2,36.54251,39.16252)"><linearGradient id="rect6709_1_" x1="-1156218.75" x2="-1156218.75" y1="-1619.785" y2="-1591.238" gradientTransform="matrix(5.597754e-004 0 0 8.576575e-004 -40019.293 -38693.293)" gradientUnits="userSpaceOnUse"><stop offset="0" style="stop-color:#000;stop-opacity:0"/><stop offset=".5" style="stop-color:#000"/><stop offset="1" style="stop-color:#000;stop-opacity:0"/></linearGradient><rect id="rect6709" width="2009.211" height="717.54" x="-2194.622" y="448.718" fill="url(#rect6709_1_)" enable-background="new" opacity=".402"/><radialGradient id="path6711_1_" cx="73.714" cy="807.511" r="5.899" gradientTransform="matrix(5.597754e-004 0 0 8.576575e-004 -40018.7461 -38693.293)" gradientUnits="userSpaceOnUse"><stop offset="0" style="stop-color:#000"/><stop offset="1" style="stop-color:#000;stop-opacity:0"/></radialGradient><path id="path6711" fill="url(#path6711_1_)" d="M-185.41,448.718v717.54c214.31,1.31,518.18-160.748,518.18-358.84C332.77,609.466,93.578,448.718-185.41,448.718z" enable-background="new" opacity=".402"/><radialGradient id="path6713_1_" cx="-2453.677" cy="807.511" r="5.899" gradientTransform="matrix(-5.597754e-004 0 0 8.576575e-004 -38644.957 -38693.293)" gradientUnits="userSpaceOnUse"><stop offset="0" style="stop-color:#000"/><stop offset="1" style="stop-color:#000;stop-opacity:0"/></radialGradient><path id="path6713" fill="url(#path6713_1_)" d="M-2194.622,448.718v717.54c-214.345,1.31-518.111-160.748-518.111-358.84C-2712.733,609.466-2473.542,448.718-2194.622,448.718z" enable-background="new" opacity=".402"/></g><g id="g4034" transform="translate(0,0.999994)"><linearGradient id="path3626_1_" x1="413.953" x2="412.279" y1="839.194" y2="802.526" gradientTransform="matrix(1.0017 0 0 1.0005 -394.9294 -792.3331)" gradientUnits="userSpaceOnUse"><stop offset="0" style="stop-color:#d2d2d2"/><stop offset="1" style="stop-color:#dfdfdf"/></linearGradient><path id="path3626" fill="url(#path3626_1_)" stroke="#5E5E5E" stroke-linecap="round" stroke-linejoin="round" stroke-width=".999" d="M2.525,6.92v50.33h33V6.618l-6.07-6.368H8.293L2.525,6.92z"/><path id="path5791" fill="#FFF" fill-opacity=".655" d="M8.599,1L3.275,8.5h31.5 l-5.769-7.279L8.599,1z"/><rect id="rect4553" width="24" height="6" x="7.775" y="11.5" fill="#FFF" stroke="#FFF" stroke-width="1.017" enable-background="new" opacity=".349"/><path id="path4394" fill="none" stroke="#FFF" stroke-width=".993" d="M4.025,7.837V55.75h30V7.561L28.471,1.75H9.304L4.025,7.837z"/><linearGradient id="rect4408_1_" x1="439.294" x2="431.775" y1="1035.262" y2="1035.11" gradientTransform="matrix(0.965 0 0 0.7934 -400.3549 -787.3754)" gradientUnits="userSpaceOnUse"><stop offset="0" style="stop-color:#fff"/><stop offset="1" style="stop-color:#fff;stop-opacity:0"/></linearGradient><linearGradient id="rect4408_2_" x1="-123.675" x2="-128.688" y1="26.888" y2="26.787" gradientUnits="userSpaceOnUse"><stop offset="0" style="stop-color:#fff"/><stop offset="1" style="stop-color:#fff;stop-opacity:0"/></linearGradient><rect id="rect4408" width="16.5" height="6" x="15.275" y="31" fill="url(#rect4408_1_)" stroke="url(#rect4408_2_)" stroke-width="1.117" enable-background="new" opacity=".526"/><rect id="rect4398" width="16.5" height="6" x="14.525" y="30.25" fill="#C8C8C8" stroke="#ACACAC" stroke-width="1.004"/><rect id="rect4551" width="24" height="6" x="7.775" y="20.5" fill="#FFF" stroke="#FFF" stroke-width="1.017" enable-background="new" opacity=".349"/><rect id="rect4430" width="24" height="6" x="7.025" y="19.75" fill="#C8C8C8" stroke="#ACACAC" stroke-width="1.023"/><rect id="rect4436" width="24" height="6" x="7.025" y="10.75" fill="#C8C8C8" stroke="#ACACAC" stroke-width="1.023"/><g id="g3980" transform="matrix(0.885784,0,0,0.892968,2.129727,2.884785)"><path id="path4396" fill="#C8C8C8" stroke="#979797" stroke-width="1.448" d="M10.609,34.845c0,1.391-1.138,2.52-2.541,2.52c-1.403,0-2.54-1.129-2.54-2.52c0-1.391,1.138-2.52,2.54-2.52 C9.471,32.325,10.609,33.454,10.609,34.845z"/><path id="path4445" fill="#FFF" d="M7.991,34.313c0,0.42-0.342,0.758-0.763,0.758c-0.423,0-0.764-0.338-0.764-0.758c0-0.42,0.342-0.758,0.764-0.758 C7.649,33.555,7.991,33.897,7.991,34.313z"/></g><linearGradient id="rect4457_1_" x1="411.1" x2="411.1" y1="855.786" y2="842.3" gradientTransform="matrix(0.9899 0 0 0.99 -393.9225 -792.2045)" gradientUnits="userSpaceOnUse"><stop offset="0" style="stop-color:#fff"/><stop offset="1" style="stop-color:#fff;stop-opacity:0"/></linearGradient><rect id="rect4457" width="1.5" height="15" x="12.275" y="40" fill="url(#rect4457_1_)"/><linearGradient id="rect4461_1_" x1="412.11" x2="412.11" y1="855.786" y2="842.3" gradientTransform="matrix(0.9899 0 0 0.99 -391.9225 -792.2045)" gradientUnits="userSpaceOnUse"><stop offset="0" style="stop-color:#fff"/><stop offset="1" style="stop-color:#fff;stop-opacity:0"/></linearGradient><rect id="rect4461" width="1.5" height="15" x="15.275" y="40" fill="url(#rect4461_1_)"/><linearGradient id="rect4465_1_" x1="413.12" x2="413.12" y1="855.786" y2="842.3" gradientTransform="matrix(0.9899 0 0 0.99 -389.9225 -792.2045)" gradientUnits="userSpaceOnUse"><stop offset="0" style="stop-color:#fff"/><stop offset="1" style="stop-color:#fff;stop-opacity:0"/></linearGradient><rect id="rect4465" width="1.5" height="15" x="18.275" y="40" fill="url(#rect4465_1_)"/><linearGradient id="rect4469_1_" x1="414.131" x2="414.131" y1="855.786" y2="842.3" gradientTransform="matrix(0.9899 0 0 0.99 -387.9225 -792.2045)" gradientUnits="userSpaceOnUse"><stop offset="0" style="stop-color:#fff"/><stop offset="1" style="stop-color:#fff;stop-opacity:0"/></linearGradient><rect id="rect4469" width="1.5" height="15" x="21.275" y="40" fill="url(#rect4469_1_)"/><linearGradient id="rect4473_1_" x1="415.141" x2="415.141" y1="855.786" y2="842.3" gradientTransform="matrix(0.9899 0 0 0.99 -385.9225 -792.2045)" gradientUnits="userSpaceOnUse"><stop offset="0" style="stop-color:#fff"/><stop offset="1" style="stop-color:#fff;stop-opacity:0"/></linearGradient><rect id="rect4473" width="1.5" height="15" x="24.275" y="40" fill="url(#rect4473_1_)"/><linearGradient id="rect4477_1_" x1="416.15" x2="416.15" y1="855.786" y2="842.3" gradientTransform="matrix(0.9899 0 0 0.99 -383.9215 -792.2045)" gradientUnits="userSpaceOnUse"><stop offset="0" style="stop-color:#fff"/><stop offset="1" style="stop-color:#fff;stop-opacity:0"/></linearGradient><rect id="rect4477" width="1.5" height="15" x="27.275" y="40" fill="url(#rect4477_1_)" enable-background="new" opacity=".543"/><linearGradient id="rect4481_1_" x1="410.595" x2="410.595" y1="855.786" y2="842.3" gradientTransform="matrix(0.9899 0 0 0.99 -394.9225 -792.2045)" gradientUnits="userSpaceOnUse"><stop offset="0" style="stop-color:#000"/><stop offset="1" style="stop-color:#000;stop-opacity:0"/></linearGradient><rect id="rect4481" width="1.5" height="15" x="10.775" y="40" fill="url(#rect4481_1_)" enable-background="new" opacity=".16"/><linearGradient id="rect4483_1_" x1="411.606" x2="411.606" y1="855.786" y2="842.3" gradientTransform="matrix(0.9899 0 0 0.99 -392.9225 -792.2045)" gradientUnits="userSpaceOnUse"><stop offset="0" style="stop-color:#000"/><stop offset="1" style="stop-color:#000;stop-opacity:0"/></linearGradient><rect id="rect4483" width="1.5" height="15" x="13.775" y="40" fill="url(#rect4483_1_)" enable-background="new" opacity=".291"/><linearGradient id="rect4485_1_" x1="412.615" x2="412.615" y1="855.786" y2="842.3" gradientTransform="matrix(0.9899 0 0 0.99 -390.9225 -792.2045)" gradientUnits="userSpaceOnUse"><stop offset="0" style="stop-color:#000"/><stop offset="1" style="stop-color:#000;stop-opacity:0"/></linearGradient><rect id="rect4485" width="1.5" height="15" x="16.775" y="40" fill="url(#rect4485_1_)" enable-background="new" opacity=".291"/><linearGradient id="rect4487_1_" x1="413.625" x2="413.625" y1="855.786" y2="842.3" gradientTransform="matrix(0.9899 0 0 0.99 -388.9225 -792.2045)" gradientUnits="userSpaceOnUse"><stop offset="0" style="stop-color:#000"/><stop offset="1" style="stop-color:#000;stop-opacity:0"/></linearGradient><rect id="rect4487" width="1.5" height="15" x="19.775" y="40" fill="url(#rect4487_1_)" enable-background="new" opacity=".291"/><linearGradient id="rect4489_1_" x1="414.636" x2="414.636" y1="855.786" y2="842.3" gradientTransform="matrix(0.9899 0 0 0.99 -386.9225 -792.2045)" gradientUnits="userSpaceOnUse"><stop offset="0" style="stop-color:#000"/><stop offset="1" style="stop-color:#000;stop-opacity:0"/></linearGradient><rect id="rect4489" width="1.5" height="15" x="22.775" y="40" fill="url(#rect4489_1_)" enable-background="new" opacity=".291"/><linearGradient id="rect4491_1_" x1="415.644" x2="415.644" y1="855.786" y2="842.3" gradientTransform="matrix(0.9899 0 0 0.99 -384.9215 -792.2045)" gradientUnits="userSpaceOnUse"><stop offset="0" style="stop-color:#000"/><stop offset="1" style="stop-color:#000;stop-opacity:0"/></linearGradient><rect id="rect4491" width="1.5" height="15" x="25.775" y="40" fill="url(#rect4491_1_)" enable-background="new" opacity=".229"/></g></g></svg>