<svg xmlns="http://www.w3.org/2000/svg" xmlns:xlink="http://www.w3.org/1999/xlink" id="Layer_1" width="60" height="94.167" x="0" y="0" enable-background="new 0 0 60 94.167" version="1.1" viewBox="0 0 60 94.167" xml:space="preserve"><g><rect width="48.435" height="79.959" x="1.161" y="13" fill="#D1D3D4" stroke="#000" stroke-linecap="round" stroke-linejoin="round" stroke-miterlimit="10" stroke-width="2"/><polygon fill="#D1D3D4" stroke="#000" stroke-linecap="round" stroke-linejoin="round" stroke-miterlimit="10" stroke-width="2" points="59 80.959 49.596 92.959 49.596 13 59 1"/><polygon fill="#FFF" stroke="#000" stroke-linecap="round" stroke-linejoin="round" stroke-miterlimit="10" stroke-width="2" points="58.596 1 10.161 1 1.161 12.956 49.596 12.956"/><rect width="18.977" height="15.449" x="17.615" y="77.51" fill="#FFF" stroke="#000" stroke-linecap="round" stroke-linejoin="round" stroke-miterlimit="10" stroke-width="2"/><rect width="13.428" height="13.427" x="6.427" y="19.263" fill="#FFF" stroke="#000" stroke-linecap="round" stroke-linejoin="round" stroke-miterlimit="10" stroke-width="2"/><rect width="13.428" height="13.427" x="29.879" y="19.263" fill="#FFF" stroke="#000" stroke-linecap="round" stroke-linejoin="round" stroke-miterlimit="10" stroke-width="2"/><rect width="13.428" height="13.426" x="6.427" y="36.644" fill="#FFF" stroke="#000" stroke-linecap="round" stroke-linejoin="round" stroke-miterlimit="10" stroke-width="2"/><rect width="13.428" height="13.426" x="29.879" y="36.644" fill="#FFF" stroke="#000" stroke-linecap="round" stroke-linejoin="round" stroke-miterlimit="10" stroke-width="2"/><rect width="13.428" height="13.427" x="6.427" y="54.429" fill="#FFF" stroke="#000" stroke-linecap="round" stroke-linejoin="round" stroke-miterlimit="10" stroke-width="2"/><rect width="13.428" height="13.427" x="29.879" y="54.429" fill="#FFF" stroke="#000" stroke-linecap="round" stroke-linejoin="round" stroke-miterlimit="10" stroke-width="2"/><polygon fill="#D1D3D4" points="48.042 3.75 16.097 3.75 11.161 10.04 43.107 10.04"/></g></svg>