<svg xmlns="http://www.w3.org/2000/svg" xmlns:svg="http://www.w3.org/2000/svg" xmlns:xlink="http://www.w3.org/1999/xlink" id="svg2327" width="48" height="48" x="0" y="0" enable-background="new 0 0 48 48" version="1.1" viewBox="0 0 48 48" xml:space="preserve"><g><radialGradient id="path2452_1_" cx="78.887" cy="-500.571" r="8.768" gradientTransform="matrix(1.9258 0 0 -0.7108 -129.6803 -321.4586)" gradientUnits="userSpaceOnUse"><stop offset="0" style="stop-color:#000"/><stop offset="1" style="stop-color:#000;stop-opacity:0"/></radialGradient><path id="path2452" fill="url(#path2452_1_)" d="M39.122,34.365c0.003,3.441-7.553,6.232-16.876,6.234c-9.324,0-16.885-2.789-16.888-6.23c0-0.001,0-0.002,0-0.004 c-0.003-3.441,7.553-6.232,16.876-6.233c9.324-0.001,16.885,2.788,16.888,6.229C39.122,34.363,39.122,34.364,39.122,34.365z"/><path id="path2407" fill="#ADB0AA" stroke="#4B4D4A" d="M31.27,32.92c0,2.176-4.206,3.939-9.395,3.939s-9.395-1.764-9.395-3.939l0,0c0-2.176,4.206-3.939,9.395-3.939 S31.27,30.744,31.27,32.92z"/><path id="path1825" fill="none" stroke="#7B7F7A" d="M30.709,32.213c0,2.045-3.955,3.704-8.834,3.704c-4.878,0-8.833-1.659-8.833-3.704l0,0c0-2.047,3.955-3.705,8.833-3.705 C26.754,28.508,30.709,30.166,30.709,32.213z"/><linearGradient id="path2983_1_" x1="-99.386" x2="-99.386" y1="74.547" y2="79.621" gradientUnits="userSpaceOnUse"><stop offset="0" style="stop-color:#d8dfd6"/><stop offset="1" style="stop-color:#d8dfd6;stop-opacity:0"/></linearGradient><path id="path2983" fill="none" stroke="url(#path2983_1_)" stroke-width=".681" d="M30.709,31.463c0,2.045-3.955,3.704-8.834,3.704c-4.878,0-8.833-1.659-8.833-3.704l0,0c0-2.047,3.955-3.705,8.833-3.705 C26.754,27.758,30.709,29.416,30.709,31.463z"/><path id="path2411" fill="#D0D0D0" stroke="#979797" stroke-linejoin="round" stroke-width=".4" d="M25.688,28.766l-0.063,1c0,0,4.324,3.6,9,4.203c2.338,0.302,4.754,0.703,6.75,1.188s3.588,1.119,4.125,1.656 c0.311,0.311,0.451,0.574,0.5,0.781s0.038,0.355-0.094,0.563c-0.264,0.416-1.08,0.968-2.469,1.406 C40.66,40.439,35.717,41,28.875,41v1c6.896,0,11.863-0.527,14.844-1.469c1.49-0.471,2.525-1.016,3.031-1.813 c0.253-0.398,0.357-0.889,0.25-1.344s-0.385-0.885-0.781-1.281c-0.877-0.877-2.537-1.406-4.594-1.906s-4.516-0.914-6.875-1.219 C30.031,32.359,25.688,28.766,25.688,28.766z"/><radialGradient id="path2462_1_" cx="78.887" cy="-500.572" r="8.768" gradientTransform="matrix(1.9258 0 0 -0.7108 -129.6803 -326.8629)" gradientUnits="userSpaceOnUse"><stop offset="0" style="stop-color:#000"/><stop offset="1" style="stop-color:#000;stop-opacity:0"/></radialGradient><path id="path2462" fill="url(#path2462_1_)" d="M39.122,28.961c0.003,3.441-7.553,6.232-16.876,6.234c-9.324,0-16.885-2.788-16.888-6.23c0,0,0-0.002,0-0.004 c-0.003-3.441,7.553-6.232,16.876-6.233c9.324-0.001,16.885,2.788,16.888,6.229C39.122,28.959,39.122,28.96,39.122,28.961z"/><linearGradient id="rect2699_1_" x1="86.997" x2="86.918" y1="-648.925" y2="-660.282" gradientTransform="matrix(1.8163 0 0 -0.5506 -135.9663 -327.7961)" gradientUnits="userSpaceOnUse"><stop offset="0" style="stop-color:#585956"/><stop offset="1" style="stop-color:#bbbeb8"/></linearGradient><rect id="rect2699" width="9.04" height="2.74" x="17.472" y="30.703" fill="url(#rect2699_1_)"/><linearGradient id="rect2404_1_" x1="174.401" x2="200.574" y1="-330.962" y2="-357.072" gradientTransform="matrix(1.1299 0 0 -0.8851 -189.4199 -287.4541)" gradientUnits="userSpaceOnUse"><stop offset="0" style="stop-color:#dde1d9"/><stop offset="1" style="stop-color:#cacdc6"/></linearGradient><linearGradient id="rect2404_2_" x1="-65.109" x2="-42.963" y1="119.118" y2="93.254" gradientUnits="userSpaceOnUse"><stop offset="0" style="stop-color:#8f8f8f"/><stop offset="1" style="stop-color:#494949"/></linearGradient><path id="rect2404" fill="url(#rect2404_1_)" stroke="url(#rect2404_2_)" d="M7.081,1.696h29.588 c0.911,0,1.624,0.583,1.667,1.401l1.332,25.579c0.059,1.117-0.9,2.02-2.021,2.02H6.103c-1.119,0-2.079-0.902-2.021-2.02 L5.414,3.097C5.455,2.324,5.961,1.696,7.081,1.696z"/><linearGradient id="path2377_1_" x1="175.586" x2="172.751" y1="-327.418" y2="-303.661" gradientTransform="matrix(1.1741 0 0 -0.9454 -183.7313 -279.9649)" gradientUnits="userSpaceOnUse"><stop offset="0" style="stop-color:#5b5b97"/><stop offset="1" style="stop-color:#1b1b43"/></linearGradient><path id="path2377" fill="url(#path2377_1_)" stroke="#000079" stroke-linejoin="round" stroke-width=".5" d="M8.411,4.306L7.168,26.352h27.65L33.484,4.399L8.411,4.306z"/><linearGradient id="path2393_1_" x1="-71.793" x2="-71.793" y1="-46.791" y2="-37.951" gradientUnits="userSpaceOnUse"><stop offset="0" style="stop-color:#000"/><stop offset="1" style="stop-color:#000;stop-opacity:0"/></linearGradient><path id="path2393" fill="none" stroke="url(#path2393_1_)" stroke-linecap="round" stroke-opacity=".248" stroke-width=".996" d="M6.177,28.736h31.428"/><linearGradient id="path2397_1_" x1="-57.802" x2="-40.526" y1="111.495" y2="69.299" gradientUnits="userSpaceOnUse"><stop offset="0" style="stop-color:#fff"/><stop offset="1" style="stop-color:#fff;stop-opacity:0"/></linearGradient><path id="path2397" fill="none" stroke="url(#path2397_1_)" stroke-opacity=".701" stroke-width="1" d="M6.915,2.707L36.76,2.668c0.284,0,0.56,0.237,0.582,0.653l1.362,24.804c0.058,1.057-0.54,1.785-1.599,1.785H6.582 c-1.059,0-1.593-0.729-1.536-1.785L6.37,3.63C6.409,2.914,6.536,2.707,6.915,2.707z"/><linearGradient id="path2443_1_" x1="157.42" x2="163.127" y1="-319.291" y2="-344.366" gradientTransform="matrix(1.239 0 0 -0.896 -178.9672 -286.1248)" gradientUnits="userSpaceOnUse"><stop offset="0" style="stop-color:#fff"/><stop offset="1" style="stop-color:#fcfcff;stop-opacity:0"/></linearGradient><path id="path2443" fill="url(#path2443_1_)" d="M8.711,4.746L7.909,22.617C18.954,20.216,19.331,12.125,33.063,9.47l-0.161-4.657L8.711,4.746z" enable-background="new" opacity=".531"/><radialGradient id="path2657_1_" cx="49.232" cy="-534.109" r="8.768" gradientTransform="matrix(2.435 0 0 -0.6705 -95.4756 -316.8622)" gradientUnits="userSpaceOnUse"><stop offset="0" style="stop-color:#000"/><stop offset="1" style="stop-color:#000;stop-opacity:0"/></radialGradient><path id="path2657" fill="url(#path2657_1_)" d="M45.751,41.26c0.004,3.246-9.55,5.879-21.338,5.88C12.624,47.141,3.063,44.51,3.06,41.264c0-0.002,0-0.002,0-0.004 c-0.004-3.246,9.55-5.879,21.338-5.88c11.79-0.001,21.349,2.63,21.353,5.876C45.751,41.258,45.751,41.258,45.751,41.26z"/><linearGradient id="path2409_1_" x1="185.77" x2="185.63" y1="-371.998" y2="-375.891" gradientTransform="matrix(1.1299 0 0 -0.8851 -187.7949 -286.1494)" gradientUnits="userSpaceOnUse"><stop offset="0" style="stop-color:#dde1d9"/><stop offset="1" style="stop-color:#cacdc6"/></linearGradient><linearGradient id="path2409_2_" x1="-65.109" x2="-42.963" y1="119.118" y2="93.254" gradientUnits="userSpaceOnUse"><stop offset="0" style="stop-color:#8f8f8f"/><stop offset="1" style="stop-color:#494949"/></linearGradient><path id="path2409" fill="url(#path2409_1_)" stroke="url(#path2409_2_)" d="M6.462,36.817h31.002 c1.119,0,0.977,0.271,1.092,0.612l2.835,8.426c0.114,0.341,0.026,0.612-1.093,0.612H3.627c-1.119,0-1.207-0.271-1.092-0.612 L5.37,37.43C5.485,37.089,5.343,36.817,6.462,36.817z"/><path id="path2611" fill="#7A7D77" d="M6.392,38.829l-1.768,5.126h5.48l0.53-2.032h14.849 l0.55,2.075h6.168l-1.68-5.169H6.392z"/><path id="path2613" fill="#777874" d="M11.076,42.276l-0.442,1.679h14.76l-0.441-1.768L11.076,42.276z"/><path id="path2619" fill="#777A75" d="M37.593,38.829l1.679,5.038l-5.479-0.088l-1.503-4.861L37.593,38.829z"/><linearGradient id="path2615_1_" x1="58.224" x2="58.224" y1="-879.496" y2="-891.187" gradientTransform="matrix(2.3099 0 0 -0.4329 -98.7066 -342.4404)" gradientUnits="userSpaceOnUse"><stop offset="0" style="stop-color:#9d9d9d"/><stop offset="1" style="stop-color:#b9b9b9"/></linearGradient><path id="path2615" fill="url(#path2615_1_)" d="M37.593,38.299l1.679,5.038l-5.479-0.089l-1.503-4.861L37.593,38.299z"/><linearGradient id="path2617_1_" x1="50.704" x2="50.704" y1="-879.497" y2="-891.187" gradientTransform="matrix(2.3099 0 0 -0.4329 -98.7066 -342.4404)" gradientUnits="userSpaceOnUse"><stop offset="0" style="stop-color:#9d9d9d"/><stop offset="1" style="stop-color:#b9b9b9"/></linearGradient><path id="path2617" fill="url(#path2617_1_)" d="M6.392,38.211l-1.768,5.126h5.48l0.53-2.032 h14.849l0.55,2.074h6.168l-1.68-5.168H6.392z"/><linearGradient id="path2621_1_" x1="50.532" x2="50.532" y1="-879.496" y2="-891.189" gradientTransform="matrix(2.3099 0 0 -0.4329 -98.7066 -342.4404)" gradientUnits="userSpaceOnUse"><stop offset="0" style="stop-color:#9d9d9d"/><stop offset="1" style="stop-color:#b9b9b9"/></linearGradient><path id="path2621" fill="url(#path2621_1_)" d="M11.076,41.746l-0.442,1.68h14.76l-0.441-1.768L11.076,41.746z"/><linearGradient id="path2631_1_" x1="-61.871" x2="-66.851" y1="23.215" y2="50.402" gradientUnits="userSpaceOnUse"><stop offset="0" style="stop-color:#f9fff5"/><stop offset="1" style="stop-color:#f9fff5;stop-opacity:0"/></linearGradient><path id="path2631" fill="none" stroke="url(#path2631_1_)" stroke-linejoin="round" stroke-width=".5" d="M6.128,37.578h31.825l2.638,8.093H3.33L6.128,37.578z"/><linearGradient id="path2709_1_" x1="163.951" x2="165.171" y1="-481.404" y2="-481.311" gradientTransform="matrix(1.3312 0 0 -0.6584 -183.0108 -311.5091)" gradientUnits="userSpaceOnUse"><stop offset="0" style="stop-color:#909090"/><stop offset="1" style="stop-color:#bebebe;stop-opacity:0"/></linearGradient><path id="path2709" fill="url(#path2709_1_)" d="M37,5.447C37.002,5.752,36.502,6,35.885,6.001c-0.617,0.001-1.119-0.246-1.121-0.551c0-0.001,0-0.002,0-0.002 c0-0.306,0.498-0.554,1.116-0.554c0.617,0,1.118,0.247,1.12,0.552C37,5.445,37,5.446,37,5.447z"/><linearGradient id="path2719_1_" x1="163.951" x2="165.171" y1="-481.405" y2="-481.311" gradientTransform="matrix(1.3312 0 0 -0.6584 -182.8975 -309.4037)" gradientUnits="userSpaceOnUse"><stop offset="0" style="stop-color:#909090"/><stop offset="1" style="stop-color:#bebebe;stop-opacity:0"/></linearGradient><path id="path2719" fill="url(#path2719_1_)" d="M37.113,7.553c0.002,0.306-0.498,0.554-1.115,0.554s-1.119-0.246-1.12-0.552c0,0,0-0.001,0-0.002 C34.877,7.248,35.376,7,35.993,6.999c0.618-0.001,1.119,0.246,1.12,0.551C37.113,7.551,37.113,7.552,37.113,7.553z"/><linearGradient id="path2723_1_" x1="163.951" x2="165.171" y1="-481.404" y2="-481.311" gradientTransform="matrix(1.3312 0 0 -0.6584 -182.7833 -307.4037)" gradientUnits="userSpaceOnUse"><stop offset="0" style="stop-color:#909090"/><stop offset="1" style="stop-color:#bebebe;stop-opacity:0"/></linearGradient><path id="path2723" fill="url(#path2723_1_)" d="M37.227,9.553c0.002,0.306-0.498,0.554-1.115,0.554s-1.119-0.246-1.119-0.552c0,0,0-0.001,0-0.002 C34.99,9.248,35.49,9,36.107,8.999c0.617-0.001,1.119,0.246,1.119,0.551C37.227,9.551,37.227,9.552,37.227,9.553z"/><linearGradient id="path2727_1_" x1="163.951" x2="165.171" y1="-481.404" y2="-481.311" gradientTransform="matrix(1.3312 0 0 -0.6584 -182.67 -305.4037)" gradientUnits="userSpaceOnUse"><stop offset="0" style="stop-color:#909090"/><stop offset="1" style="stop-color:#bebebe;stop-opacity:0"/></linearGradient><path id="path2727" fill="url(#path2727_1_)" d="M37.341,11.553c0.001,0.306-0.498,0.554-1.115,0.554c-0.618,0-1.119-0.246-1.12-0.552c0,0,0-0.001,0-0.002 c-0.002-0.305,0.498-0.553,1.115-0.554c0.617-0.001,1.119,0.246,1.12,0.551C37.341,11.551,37.341,11.552,37.341,11.553z"/><linearGradient id="path2731_1_" x1="163.951" x2="165.171" y1="-481.404" y2="-481.311" gradientTransform="matrix(1.3312 0 0 -0.6584 -182.5567 -303.4037)" gradientUnits="userSpaceOnUse"><stop offset="0" style="stop-color:#909090"/><stop offset="1" style="stop-color:#bebebe;stop-opacity:0"/></linearGradient><path id="path2731" fill="url(#path2731_1_)" d="M37.455,13.553c0,0.306-0.498,0.554-1.116,0.554c-0.617,0-1.118-0.246-1.12-0.552c0,0,0-0.001,0-0.002 c-0.002-0.305,0.498-0.553,1.115-0.554c0.617-0.001,1.119,0.246,1.121,0.551C37.455,13.551,37.455,13.552,37.455,13.553z"/></g></svg>